# xmcd
#
# Track frame offsets:
#	150
#	2174
#	18385
#	33951
#	36762
#	53253
#	69640
#	71353
#	84798
#	105576
#	113078
#	137615
#	138837
#	155538
#	167188
#	183534
#	207685
#	212213
#	229492
#
# Disc length: 3114 seconds
#
# Revision: 0
# Processed by: cddbd v1.5.2PL0 Copyright (c) Steve Scherf et al.
# Submitted via: Jack! The Knife 17 Overdose
#
DISCID=010c2813
DTITLE=Black Veil Brides - Wretched And Divine: The Story Of The Wild Ones
DYEAR=2013
DGENRE=Metal
TTITLE0=Exordium
TTITLE1=I Am Bulletproof
TTITLE2=New Years Day
TTITLE3=F.E.A.R Transmission 1: Stay Close
TTITLE4=Wretched And Divine
TTITLE5=We Don't Belong
TTITLE6=F.E.A.R Transmission 2: Trust
TTITLE7=Devil's Choir
TTITLE8=Resurrect The Sun
TTITLE9=Overture
TTITLE10=Shadows Die
TTITLE11=Abeyance
TTITLE12=Days Are Numbered
TTITLE13=Done For You
TTITLE14=Nobody's Hero
TTITLE15=Lost It All
TTITLE16=F.E.A.R Transmission 3: As War Fades
TTITLE17=In The End
TTITLE18=F.E.A.R: Final Transmission
EXTD=John Feldmann
EXTT0=Biersack, Purdy, Pitts, Jinxx, Coma
EXTT1=Biersack, Purdy, Pitts, Jinxx, Coma
EXTT2=Biersack, Purdy, Pitts, Jinxx, Coma
EXTT3=Biersack, Purdy, Pitts, Jinxx, Coma
EXTT4=Biersack, Purdy, Pitts, Jinxx, Coma
EXTT5=Biersack, Purdy, Pitts, Jinxx, Coma
EXTT6=Biersack, Purdy, Pitts, Jinxx, Coma
EXTT7=Biersack, Purdy, Pitts, Jinxx, Coma
EXTT8=Biersack, Purdy, Pitts, Jinxx, Coma
EXTT9=Biersack, Purdy, Pitts, Jinxx, Coma
EXTT10=Biersack, Purdy, Pitts, Jinxx, Coma
EXTT11=Biersack, Purdy, Pitts, Jinxx, Coma
EXTT12=Biersack, Purdy, Pitts, Jinxx, Coma
EXTT13=Biersack, Purdy, Pitts, Jinxx, Coma
EXTT14=Biersack, Purdy, Pitts, Jinxx, Coma
EXTT15=Biersack, Purdy, Pitts, Jinxx, Coma
EXTT16=Biersack, Purdy, Pitts, Jinxx, Coma
EXTT17=Biersack, Purdy, Pitts, Jinxx, Coma
EXTT18=Biersack, Purdy, Pitts, Jinxx, Coma
PLAYORDER=
